# xmcd
#
# Track frame offsets:
#	150
#	16705
#	33432
#	51102
#	65687
#	94661
#	111636
#	141099
#	159897
#	175236
#
# Disc length: 2586
#
# Revision: 4
# Processed by: cddbd v1.5.1PL0 Copyright (c) Steve Scherf et al.
# Submitted via: CDex 1.50Beta7
# Normalized: r2:TDELIM( - );r3:TSWAP
#
DISCID=7f0a180a
DTITLE=Romantic Music Series - Romantic Piano Favorites
DYEAR=1997
DGENRE=Instrumental
TTITLE0=Garner - Misty
TTITLE1=Levant - Blame It On My Youth
TTITLE2=Gershwin - Embraceable You
TTITLE3=Howard - I Wonder Who's Kissing Her Now
TTITLE4=Bernstein - Some Other Time
TTITLE5=Raksin - Laura
TTITLE6=Van Heusen - Moonlight Becomes You
TTITLE7=Gershwin - They Can't Take That Away From Me
TTITLE8=Rodgers and Hart - Blue Moon
TTITLE9=Carmichael - The Nearess Of You
EXTD=YEAR: 1997
EXTT0=
EXTT1=
EXTT2=
EXTT3=
EXTT4=
EXTT5=
EXTT6=
EXTT7=
EXTT8=
EXTT9=
PLAYORDER=
